<?xml version="1.0" encoding="UTF-8"?>
<svg width="32px" height="32px" viewBox="0 0 32 32" version="1.1" xmlns="http://www.w3.org/2000/svg" xmlns:xlink="http://www.w3.org/1999/xlink">
    <title>instagram-logo</title>
    <g id="instagram-logo" stroke="none" stroke-width="1" fill="none" fill-rule="evenodd">
        <path d="M17.2974656,1.00059255 C20.2090738,1.00464726 20.7728555,1.02566874 22.184558,1.09008062 C23.781153,1.16290212 24.8715701,1.41649719 25.8256925,1.78733309 C26.8120874,2.17061355 27.6486118,2.68351985 28.4825757,3.51742427 C29.3164802,4.35138824 29.8293865,5.18791257 30.2127265,6.17430749 C30.5835028,7.12842991 30.8370979,8.21884703 30.9099194,9.81544205 C30.9829195,11.4153715 31.0001871,11.9261938 31.0001871,16.0000298 L31.0001413,16.3503526 C30.9991231,20.1047967 30.9807724,20.6316852 30.9099194,22.184558 C30.8370979,23.781153 30.5835028,24.8715701 30.2127265,25.8256925 C29.8293865,26.8120874 29.3164802,27.6486118 28.4825757,28.4825757 C27.6486118,29.3164802 26.8120874,29.8293865 25.8256925,30.2127265 C24.8715701,30.5835028 23.781153,30.8370979 22.184558,30.9099194 C20.678742,30.9786254 20.1376715,30.9979628 16.6828927,31 L15.3171569,31 C11.8623285,30.9979628 11.321258,30.9786254 9.81544205,30.9099194 C8.21884703,30.8370979 7.12842991,30.5835028 6.17430749,30.2127265 C5.18791257,29.8293865 4.35138824,29.3164802 3.51742427,28.4825757 C2.68351985,27.6486118 2.17061355,26.8120874 1.78733309,25.8256925 C1.41649719,24.8715701 1.16290212,23.781153 1.09008062,22.184558 C1.02566874,20.7728555 1.00464726,20.2090738 1.00059255,17.2974656 L1.00059255,14.7025753 C1.00464726,11.7909262 1.02566874,11.2271445 1.09008062,9.81544205 C1.16290212,8.21884703 1.41649719,7.12842991 1.78733309,6.17430749 C2.17061355,5.18791257 2.68351985,4.35138824 3.51742427,3.51742427 C4.35138824,2.68351985 5.18791257,2.17061355 6.17430749,1.78733309 C7.12842991,1.41649719 8.21884703,1.16290212 9.81544205,1.09008062 C11.2271445,1.02566874 11.7909262,1.00464726 14.7025753,1.00059255 Z M17.0082978,3.70295513 L14.9917469,3.70295513 C11.8993747,3.70579675 11.3765547,3.72440774 9.93863721,3.79001367 C8.47613378,3.8567022 7.68188522,4.10106806 7.15331902,4.30649257 C6.45314893,4.57860561 5.95346125,4.90365269 5.42858674,5.42858674 C4.90365269,5.95346125 4.57860561,6.45314893 4.30649257,7.15331902 C4.10106806,7.68188522 3.8567022,8.47613378 3.79001367,9.93863721 C3.72440774,11.3765547 3.70579675,11.8993747 3.70295513,14.9917469 L3.70295513,17.0082978 C3.70579675,20.1006253 3.72440774,20.6234453 3.79001367,22.0613628 C3.8567022,23.5238662 4.10106806,24.3181148 4.30649257,24.846681 C4.57860561,25.5468511 4.90371223,26.0465387 5.42858674,26.5714133 C5.95346125,27.0963473 6.45314893,27.4213944 7.15331902,27.6935074 C7.68188522,27.8989319 8.47613378,28.1432978 9.93863721,28.2099863 C11.3763923,28.2755923 11.8990991,28.2942032 14.9916758,28.2970449 L17.0083703,28.2970449 C20.1009107,28.2942032 20.6236619,28.2755923 22.0613628,28.2099863 C23.5238662,28.1432978 24.3181148,27.8989319 24.846681,27.6935074 C25.5468511,27.4213944 26.0465387,27.0963473 26.5714133,26.5714133 C27.0963473,26.0465387 27.4213944,25.5468511 27.6935074,24.846681 C27.8989319,24.3181148 28.1432978,23.5238662 28.2099863,22.0613628 C28.2755923,20.6234453 28.2942032,20.1006253 28.2970449,17.0082978 L28.2970449,14.9917469 C28.2942032,11.8993747 28.2755923,11.3765547 28.2099863,9.93863721 C28.1432978,8.47613378 27.8989319,7.68188522 27.6935074,7.15331902 C27.4213944,6.45314893 27.0963473,5.95346125 26.5714133,5.42858674 C26.0465387,4.90365269 25.5468511,4.57860561 24.846681,4.30649257 C24.3181148,4.10106806 23.5238662,3.8567022 22.0613628,3.79001367 C20.6234453,3.72440774 20.1006253,3.70579675 17.0082978,3.70295513 Z M16.0000298,8.29720606 C20.254163,8.29720606 23.7027939,11.745837 23.7027939,16.0000298 C23.7027939,20.254163 20.254163,23.7027939 16.0000298,23.7027939 C11.745837,23.7027939 8.29720606,20.254163 8.29720606,16.0000298 C8.29720606,11.745837 11.745837,8.29720606 16.0000298,8.29720606 Z M16.0000298,10.9999376 C13.2385289,10.9999376 10.9999376,13.2385289 10.9999376,16.0000298 C10.9999376,18.7614711 13.2385289,21.0000624 16.0000298,21.0000624 C18.7614711,21.0000624 21.0000624,18.7614711 21.0000624,16.0000298 C21.0000624,13.2385289 18.7614711,10.9999376 16.0000298,10.9999376 Z M24.0071199,6.19282546 C25.0012555,6.19282546 25.8071745,6.99874452 25.8071745,7.99288007 C25.8071745,8.98701561 25.0012555,9.79287513 24.0071199,9.79287513 C23.0130439,9.79287513 22.2071249,8.98701561 22.2071249,7.99288007 C22.2071249,6.99874452 23.0130439,6.19282546 24.0071199,6.19282546 Z" fill="#0A0B09"></path>
    </g>
</svg>